<svg xmlns="http://www.w3.org/2000/svg" width="21" height="20" viewBox="0 0 21 20" fill="none">
  <path d="M18.4167 1H2.58333C1.70888 1 1 2.06038 1 3.36842C1 4.67647 1.70888 5.73685 2.58333 5.73685H18.4167C19.2911 5.73685 20 4.67647 20 3.36842C20 2.06038 19.2911 1 18.4167 1Z" fill="#1A191B"/>
  <path d="M18.4167 7.63158H2.58333C1.70888 7.63158 1 8.69196 1 10C1 11.308 1.70888 12.3684 2.58333 12.3684H18.4167C19.2911 12.3684 20 11.308 20 10C20 8.69196 19.2911 7.63158 18.4167 7.63158Z" fill="#1A191B"/>
  <path d="M18.4167 14.2632H2.58333C1.70888 14.2632 1 15.3235 1 16.6316C1 17.9396 1.70888 19 2.58333 19H18.4167C19.2911 19 20 17.9396 20 16.6316C20 15.3235 19.2911 14.2632 18.4167 14.2632Z" fill="#1A191B"/>
  <path d="M18.4167 1H2.58333C1.70888 1 1 2.06038 1 3.36842C1 4.67647 1.70888 5.73685 2.58333 5.73685H18.4167C19.2911 5.73685 20 4.67647 20 3.36842C20 2.06038 19.2911 1 18.4167 1Z" stroke="#1A191B" stroke-width="0.5"/>
  <path d="M18.4167 7.63158H2.58333C1.70888 7.63158 1 8.69196 1 10C1 11.308 1.70888 12.3684 2.58333 12.3684H18.4167C19.2911 12.3684 20 11.308 20 10C20 8.69196 19.2911 7.63158 18.4167 7.63158Z" stroke="#1A191B" stroke-width="0.5"/>
  <path d="M18.4167 14.2632H2.58333C1.70888 14.2632 1 15.3235 1 16.6316C1 17.9396 1.70888 19 2.58333 19H18.4167C19.2911 19 20 17.9396 20 16.6316C20 15.3235 19.2911 14.2632 18.4167 14.2632Z" stroke="#1A191B" stroke-width="0.5"/>
</svg>