<svg width="22" height="24" viewBox="0 0 22 24" fill="#f4e8d9" xmlns="http://www.w3.org/2000/svg">
<path d="M14.583 12.4198C13.0184 13.5029 9.64852 13.7434 7.60263 12.4194C4.71414 13.2617 0.260814 17.9551 1.10303 22.0471C1.10299 22.6489 19.6371 23.1315 21.0814 22.0484C21.8036 20.9653 19.9987 14.5865 14.583 12.4198Z" fill="#f4e8d9"/>
<path d="M11.1079 11.5768C14.0325 11.577 16.4035 9.15238 16.4037 6.16131C16.4039 3.17024 14.0332 0.745342 11.1086 0.745155C8.18397 0.744967 5.81295 3.16956 5.81276 6.16063C5.81257 9.1517 8.18328 11.5766 11.1079 11.5768Z" fill="#f4e8d9"/>
<path d="M14.583 12.4198C13.0184 13.5029 9.64852 13.7434 7.60263 12.4194C4.71414 13.2617 0.260814 17.9551 1.10303 22.0471C1.10299 22.6489 19.6371 23.1315 21.0814 22.0484C21.8036 20.9653 19.9987 14.5865 14.583 12.4198Z" stroke="#f4e8d9"/>
<path d="M11.1079 11.5768C14.0325 11.577 16.4035 9.15238 16.4037 6.16131C16.4039 3.17024 14.0332 0.745342 11.1086 0.745155C8.18397 0.744967 5.81295 3.16956 5.81276 6.16063C5.81257 9.1517 8.18328 11.5766 11.1079 11.5768Z" stroke="#f4e8d9"/>
</svg>
