<svg width="109" height="106" viewBox="0 0 109 106" fill="#F4E8D9" xmlns="http://www.w3.org/2000/svg">
<path d="M6.65608 21.3029L4.61864 1.15779L25.0976 3.05133L54.1443 35.6097L83.8178 3.05133L104.454 1L102.416 21.04L68.8243 51.81L77.5488 61.751L65.1151 73.6383L54.6144 64.6439L43.957 73.9538L31.4189 61.751L40.5613 51.81L6.65608 21.3029Z" fill="#F4E8D9"/>
<path d="M47.614 82.9482L22.2243 57.5432C22.2243 57.5432 18.8808 55.7548 16.0074 58.7003C12.6639 62.1278 14.5447 64.8543 14.5447 64.8543L22.2243 73.0071L7.64868 87.4716L4.51415 84.5787C4.51415 84.5787 2.73792 83.8788 1.58859 85.2625C0.439264 86.6462 1.32738 88.1028 1.32738 88.1028L17.8882 104.829C17.8882 104.829 19.1942 105.513 20.6048 104.145C21.9641 102.827 21.2317 101.515 21.2317 101.515L18.3061 98.2543L32.8294 84.0527L39.4642 90.2593C39.4642 90.2593 42.9122 93.6782 46.7781 89.8385C50.644 85.9989 47.614 82.9482 47.614 82.9482Z" fill="#F4E8D9"/>
<path d="M61.386 82.6444L86.7757 57.2394C86.7757 57.2394 90.1192 55.4511 92.9926 58.3966C96.3361 61.8241 94.4553 64.5506 94.4553 64.5506L86.7757 72.7033L101.351 87.1679L104.486 84.2749C104.486 84.2749 106.262 83.575 107.411 84.9587C108.561 86.3424 107.673 87.799 107.673 87.799L91.1118 104.525C91.1118 104.525 89.8058 105.209 88.3952 103.842C87.0359 102.524 87.7683 101.212 87.7683 101.212L90.6939 97.9505L76.1706 83.749L69.5358 89.9556C69.5358 89.9556 66.0878 93.3745 62.2219 89.5348C58.356 85.6951 61.386 82.6444 61.386 82.6444Z" fill="#F4E8D9"/>
<path d="M6.65608 21.3029L4.61864 1.15779L25.0976 3.05133L54.1443 35.6097L83.8178 3.05133L104.454 1L102.416 21.04L68.8243 51.81L77.5488 61.751L65.1151 73.6383L54.6144 64.6439L43.957 73.9538L31.4189 61.751L40.5613 51.81L6.65608 21.3029Z" stroke="#F4E8D9"/>
<path d="M47.614 82.9482L22.2243 57.5432C22.2243 57.5432 18.8808 55.7548 16.0074 58.7003C12.6639 62.1278 14.5447 64.8543 14.5447 64.8543L22.2243 73.0071L7.64868 87.4716L4.51415 84.5787C4.51415 84.5787 2.73792 83.8788 1.58859 85.2625C0.439264 86.6462 1.32738 88.1028 1.32738 88.1028L17.8882 104.829C17.8882 104.829 19.1942 105.513 20.6048 104.145C21.9641 102.827 21.2317 101.515 21.2317 101.515L18.3061 98.2543L32.8294 84.0527L39.4642 90.2593C39.4642 90.2593 42.9122 93.6782 46.7781 89.8385C50.644 85.9989 47.614 82.9482 47.614 82.9482Z" stroke="#F4E8D9"/>
<path d="M61.386 82.6444L86.7757 57.2394C86.7757 57.2394 90.1192 55.4511 92.9926 58.3966C96.3361 61.8241 94.4553 64.5506 94.4553 64.5506L86.7757 72.7033L101.351 87.1679L104.486 84.2749C104.486 84.2749 106.262 83.575 107.411 84.9587C108.561 86.3424 107.673 87.799 107.673 87.799L91.1118 104.525C91.1118 104.525 89.8058 105.209 88.3952 103.842C87.0359 102.524 87.7683 101.212 87.7683 101.212L90.6939 97.9505L76.1706 83.749L69.5358 89.9556C69.5358 89.9556 66.0878 93.3745 62.2219 89.5348C58.356 85.6951 61.386 82.6444 61.386 82.6444Z" stroke="#F4E8D9"/>
</svg>
